<svg width="100" height="100" viewBox="0 0 100 100" fill="none" xmlns="http://www.w3.org/2000/svg">
<path d="M33.0813 10.225C31.9096 11.397 31.2513 12.9865 31.2513 14.6437C31.2513 16.301 31.9096 17.8904 33.0813 19.0625L64.0188 50L33.0813 80.9375C31.9428 82.1163 31.3128 83.695 31.327 85.3338C31.3413 86.9725 31.9986 88.5401 33.1574 89.6989C34.3162 90.8577 35.8838 91.515 37.5225 91.5292C39.1612 91.5435 40.74 90.9135 41.9188 89.775L77.275 54.4187C78.4467 53.2467 79.1049 51.6573 79.1049 50C79.1049 48.3427 78.4467 46.7533 77.275 45.5813L41.9188 10.225C40.7467 9.0533 39.1573 8.39508 37.5 8.39508C35.8427 8.39508 34.2533 9.0533 33.0813 10.225Z" fill="white"/>
</svg>
