<svg width="20" height="14" viewBox="0 0 20 14" fill="none" xmlns="http://www.w3.org/2000/svg">
<g clip-path="url(#clip0_3_32)">
<path d="M0 0H20V14H0V0Z" fill="#012169"/>
<path d="M20 0V1.75L12.5781 7L20 12.1133V14H17.3828L9.92188 8.85938L2.65625 14H0V12.1406L7.26562 7.02734L0 2.02344V0H2.42188L9.92188 5.14062L17.1875 0H20Z" fill="white"/>
<path d="M7.1875 8.85938L7.61719 9.78906L1.64062 14H0V13.918L7.1875 8.85938ZM12.0312 8.53125L14.1406 8.75L20 12.7695V14L12.0312 8.53125ZM20 0L12.5 5.35938L12.3438 4.15625L18.2031 0H20ZM0 0.0273438L7.53906 5.19531L5.23438 4.97656L0 1.33984V0.0273438Z" fill="#C8102E"/>
<path d="M6.875 0V14H13.125V0H6.875ZM0 4.8125V9.1875H20V4.8125H0Z" fill="white"/>
<path d="M0 5.6875V8.3125H20V5.6875H0ZM8.125 0V14H11.875V0H8.125Z" fill="#C8102E"/>
</g>
<defs>
<clipPath id="clip0_3_32">
<rect width="20" height="14" fill="white"/>
</clipPath>
</defs>
</svg>
