<svg width="100" height="100" viewBox="0 0 100 100" fill="none" xmlns="http://www.w3.org/2000/svg">
<path d="M66.9187 89.775C68.0904 88.603 68.7487 87.0135 68.7487 85.3563C68.7487 83.699 68.0904 82.1096 66.9187 80.9375L35.9812 50L66.9187 19.0625C68.0572 17.8837 68.6872 16.305 68.673 14.6662C68.6587 13.0275 68.0014 11.4599 66.8426 10.3011C65.6838 9.14233 64.1162 8.48503 62.4775 8.47079C60.8388 8.45655 59.26 9.08651 58.0812 10.225L22.725 45.5813C21.5533 46.7533 20.8951 48.3427 20.8951 50C20.8951 51.6573 21.5533 53.2467 22.725 54.4187L58.0812 89.775C59.2533 90.9467 60.8427 91.6049 62.5 91.6049C64.1573 91.6049 65.7467 90.9467 66.9187 89.775Z" fill="white"/>
</svg>
