<svg width="84" height="49" viewBox="0 0 84 49" fill="none" xmlns="http://www.w3.org/2000/svg">
<path d="M2.225 46.9187C3.39704 48.0904 4.98647 48.7487 6.64375 48.7487C8.30102 48.7487 9.89045 48.0904 11.0625 46.9187L42 15.9812L72.9375 46.9187C74.1163 48.0572 75.695 48.6872 77.3338 48.673C78.9725 48.6587 80.5401 48.0014 81.6989 46.8426C82.8577 45.6838 83.515 44.1162 83.5292 42.4775C83.5435 40.8388 82.9135 39.26 81.775 38.0812L46.4187 2.725C45.2467 1.5533 43.6573 0.895081 42 0.895081C40.3427 0.895081 38.7533 1.5533 37.5813 2.725L2.225 38.0812C1.0533 39.2533 0.395081 40.8427 0.395081 42.5C0.395081 44.1573 1.0533 45.7467 2.225 46.9187Z" fill="white"/>
</svg>
