<svg width="60" height="40" viewBox="0 0 60 40" fill="none" xmlns="http://www.w3.org/2000/svg">
<path d="M48.6103 27.519C48.8223 28.07 49.3013 29.554 49.4213 31.933C47.3813 31.528 45.8433 29.711 45.8433 27.527H48.5073C48.5423 27.526 48.5753 27.519 48.6103 27.519Z" fill="#56A3EB"/>
<path d="M39.6284 29.213C39.1379 29.213 38.7404 28.4582 38.7404 27.527C38.7404 26.5959 39.1379 25.841 39.6284 25.841C40.1188 25.841 40.5164 26.5959 40.5164 27.527C40.5164 28.4582 40.1188 29.213 39.6284 29.213Z" fill="#56A3EB"/>
<path d="M36.0755 28.089C35.5845 28.089 35.1865 27.3346 35.1865 26.404C35.1865 25.4734 35.5845 24.719 36.0755 24.719C36.5665 24.719 36.9645 25.4734 36.9645 26.404C36.9645 27.3346 36.5665 28.089 36.0755 28.089Z" fill="#56A3EB"/>
<path d="M32.5245 26.965C32.0346 26.965 31.6375 26.2102 31.6375 25.279C31.6375 24.3479 32.0346 23.593 32.5245 23.593C33.0144 23.593 33.4115 24.3479 33.4115 25.279C33.4115 26.2102 33.0144 26.965 32.5245 26.965Z" fill="#56A3EB"/>
<path d="M5.88686 35.531L23.3326 27.734C23.1736 27.518 23.0136 27.302 22.8536 27.082C22.4236 26.492 21.9676 25.871 21.4607 25.261C19.1437 25.07 14.6637 23.394 13.0758 21.817C12.9288 21.671 12.8278 21.376 12.7628 21.007L-5.72205e-05 13.532L10.1288 16.382L9.09782 11.382L5.74387 10.104L8.91782 10.507L8.51983 8.578L6.87485 8.988L3.2229 6.384L7.78184 4.998L7.75684 4.872L7.07285 1.558L10.0828 2.828L10.7898 3.126L13.8768 0L17.4297 1.123L15.6077 5.158L15.9597 5.305L16.2567 5.841L19.5847 11.861L21.2417 12.072C21.3262 11.9978 21.4333 11.9544 21.5457 11.949C21.5457 11.949 27.3596 12.713 29.5375 14.753C29.9535 15.143 30.3865 15.722 30.4185 16.867C33.0207 17.6483 35.619 18.4423 38.2134 19.249L46.7323 12.359V6.741L48.5083 7.865L50.2843 13.482L46.2203 21.839C46.6023 21.971 46.9663 22.098 47.2963 22.218C52.2052 23.987 53.2362 25.971 54.4292 28.269C55.1372 29.632 55.8692 31.041 57.6992 32.888C58.9642 34.166 60.5571 36.088 59.8071 38.027C59.3012 39.335 57.9822 40 55.8882 40C52.0062 40 44.5703 37.879 34.1775 33.83L6.77485 39.324L3.2229 36.721V30.334L4.94688 31.513L5.88686 35.531ZM6.44386 16.276L12.6818 19.929C12.6797 19.3091 12.7489 18.6911 12.8878 18.087L6.44386 16.276ZM20.1227 12.836L20.6617 13.811C20.6646 13.51 20.7039 13.2105 20.7787 12.919L20.1227 12.836ZM26.3096 26.404L39.9334 32.676L37.4644 33.171C46.8293 36.685 52.8472 38.2 55.8882 38.2C58.9162 38.2 58.9972 36.7 56.5032 34.18C55.0832 32.747 54.2442 31.516 53.6192 30.43L53.6302 30.449C52.8172 31.403 51.6273 32.019 50.2833 32.019L50.2613 32.017C50.1753 29.853 49.8173 28.302 49.5303 27.388C50.1604 27.239 50.7498 26.9525 51.2563 26.549C52.0422 27.391 52.4932 28.313 53.0502 29.379C51.8723 27.121 51.1813 25.518 46.7363 23.916C39.6744 21.371 19.6327 15.537 19.6327 15.537L14.8377 6.865L14.7677 7.02L10.1958 8.159L11.9998 16.905L13.2368 17.253C13.3298 17.141 13.4318 17.081 13.5448 17.095C15.7877 17.389 19.8617 18.715 21.8717 20.785C22.2856 21.211 22.7606 21.79 22.7606 23.031C22.7606 23.369 22.7286 23.686 22.6756 23.975C23.5616 25.03 24.2806 26.097 24.9746 26.999L26.3096 26.404ZM53.3312 29.912L53.2872 29.829C53.3012 29.857 53.3152 29.885 53.3312 29.912Z" fill="url(#paint0_linear_20_65)"/>
<defs>
<linearGradient id="paint0_linear_20_65" x1="-5.35548e-05" y1="-3.79759e-07" x2="61.4991" y2="1.69508e-07" gradientUnits="userSpaceOnUse">
<stop stop-color="#56A3EB"/>
<stop offset="0.0001" stop-color="#197FDE" stop-opacity="0.960725"/>
<stop offset="0.9998" stop-color="#5AA5EB" stop-opacity="0.859761"/>
<stop offset="0.9999" stop-color="#61A8EB" stop-opacity="0.645"/>
<stop offset="1" stop-color="#76B2EA" stop-opacity="0"/>
</linearGradient>
</defs>
</svg>
